<?xml version="1.0" standalone="no"?><svg xmlns="http://www.w3.org/2000/svg" viewBox="0 0 1440 320"><path fill="#090b1c" fill-opacity="1" d="M0,64L18.5,96C36.9,128,74,192,111,208C147.7,224,185,192,222,170.7C258.5,149,295,139,332,144C369.2,149,406,171,443,160C480,149,517,107,554,101.3C590.8,96,628,128,665,128C701.5,128,738,96,775,106.7C812.3,117,849,171,886,186.7C923.1,203,960,181,997,186.7C1033.8,192,1071,224,1108,213.3C1144.6,203,1182,149,1218,106.7C1255.4,64,1292,32,1329,26.7C1366.2,21,1403,43,1422,53.3L1440,64L1440,0L1421.5,0C1403.1,0,1366,0,1329,0C1292.3,0,1255,0,1218,0C1181.5,0,1145,0,1108,0C1070.8,0,1034,0,997,0C960,0,923,0,886,0C849.2,0,812,0,775,0C738.5,0,702,0,665,0C627.7,0,591,0,554,0C516.9,0,480,0,443,0C406.2,0,369,0,332,0C295.4,0,258,0,222,0C184.6,0,148,0,111,0C73.8,0,37,0,18,0L0,0Z"></path></svg>